<svg id="SvgjsSvg1006" width="1333.887466430664" height="387" xmlns="http://www.w3.org/2000/svg" version="1.1" xmlns:xlink="http://www.w3.org/1999/xlink" xmlns:svgjs="http://svgjs.com/svgjs"><defs id="SvgjsDefs1007"><marker id="SvgjsMarker1040" markerWidth="14" markerHeight="10" refX="10" refY="5" viewBox="0 0 14 10" orient="auto" markerUnits="userSpaceOnUse" stroke-dasharray="0,0"><path id="SvgjsPath1041" d="M0,0 L14,5 L0,10 L0,0" fill="#323232" stroke="#323232" stroke-width="1"></path></marker><marker id="SvgjsMarker1102" markerWidth="14" markerHeight="10" refX="10" refY="5" viewBox="0 0 14 10" orient="auto" markerUnits="userSpaceOnUse" stroke-dasharray="0,0"><path id="SvgjsPath1103" d="M0,0 L14,5 L0,10 L0,0" fill="#323232" stroke="#323232" stroke-width="1"></path></marker><marker id="SvgjsMarker1106" markerWidth="14" markerHeight="10" refX="10" refY="5" viewBox="0 0 14 10" orient="auto" markerUnits="userSpaceOnUse" stroke-dasharray="0,0"><path id="SvgjsPath1107" d="M0,0 L14,5 L0,10 L0,0" fill="#323232" stroke="#323232" stroke-width="1"></path></marker><marker id="SvgjsMarker1128" markerWidth="14" markerHeight="10" refX="10" refY="5" viewBox="0 0 14 10" orient="auto" markerUnits="userSpaceOnUse" stroke-dasharray="0,0"><path id="SvgjsPath1129" d="M0,0 L14,5 L0,10 L0,0" fill="#323232" stroke="#323232" stroke-width="1"></path></marker><marker id="SvgjsMarker1132" markerWidth="14" markerHeight="10" refX="10" refY="5" viewBox="0 0 14 10" orient="auto" markerUnits="userSpaceOnUse" stroke-dasharray="0,0"><path id="SvgjsPath1133" d="M0,0 L14,5 L0,10 L0,0" fill="#323232" stroke="#323232" stroke-width="1"></path></marker><marker id="SvgjsMarker1136" markerWidth="14" markerHeight="10" refX="10" refY="5" viewBox="0 0 14 10" orient="auto" markerUnits="userSpaceOnUse" stroke-dasharray="0,0"><path id="SvgjsPath1137" d="M0,0 L14,5 L0,10 L0,0" fill="#323232" stroke="#323232" stroke-width="1"></path></marker><marker id="SvgjsMarker1140" markerWidth="14" markerHeight="10" refX="10" refY="5" viewBox="0 0 14 10" orient="auto" markerUnits="userSpaceOnUse" stroke-dasharray="0,0"><path id="SvgjsPath1141" d="M0,0 L14,5 L0,10 L0,0" fill="#323232" stroke="#323232" stroke-width="1"></path></marker><marker id="SvgjsMarker1144" markerWidth="14" markerHeight="10" refX="10" refY="5" viewBox="0 0 14 10" orient="auto" markerUnits="userSpaceOnUse" stroke-dasharray="0,0"><path id="SvgjsPath1145" d="M0,0 L14,5 L0,10 L0,0" fill="#323232" stroke="#323232" stroke-width="1"></path></marker><marker id="SvgjsMarker1148" markerWidth="14" markerHeight="10" refX="10" refY="5" viewBox="0 0 14 10" orient="auto" markerUnits="userSpaceOnUse" stroke-dasharray="0,0"><path id="SvgjsPath1149" d="M0,0 L14,5 L0,10 L0,0" fill="#323232" stroke="#323232" stroke-width="1"></path></marker></defs><g id="SvgjsG1008" transform="translate(395.6875,25)"><path id="SvgjsPath1009" d="M 0 4Q 0 0 4 0L 311 0Q 315 0 315 4L 315 333Q 315 337 311 337L 4 337Q 0 337 0 333Z" stroke="rgba(50,50,50,1)" stroke-width="2" fill-opacity="1" fill="#b2ebf2"></path><g id="SvgjsG1010"><text id="SvgjsText1011" font-family="微软雅黑" text-anchor="middle" font-size="13px" width="305px" fill="#323232" font-weight="400" align="middle" lineHeight="125%" anchor="middle" family="微软雅黑" size="13px" weight="400" font-style="" opacity="1" y="14.44642857142857" transform="rotate(0)"><tspan id="SvgjsTspan1012" dy="16" x="157.5"><tspan id="SvgjsTspan1013" style="text-decoration:;">router.index.js</tspan></tspan></text></g></g><g id="SvgjsG1014" transform="translate(1112.8874816894531,96.2777235926045)"><path id="SvgjsPath1015" d="M 0 4Q 0 0 4 0L 192 0Q 196 0 196 4L 196 188.96351016076255Q 196 192.96351016076255 192 192.96351016076255L 4 192.96351016076255Q 0 192.96351016076255 0 188.96351016076255Z" stroke="rgba(50,50,50,1)" stroke-width="2" fill-opacity="1" fill="#9c27b0"></path><g id="SvgjsG1016"><text id="SvgjsText1017" font-family="微软雅黑" text-anchor="middle" font-size="13px" width="186px" fill="#323232" font-weight="400" align="middle" lineHeight="125%" anchor="middle" family="微软雅黑" size="13px" weight="400" font-style="" opacity="1" y="4.158107868625896" transform="rotate(0)"><tspan id="SvgjsTspan1018" dy="16" x="98"><tspan id="SvgjsTspan1019" style="text-decoration:;">App.vue</tspan></tspan></text></g></g><g id="SvgjsG1020" transform="translate(24.987518310546875,170.67701269213057)"><path id="SvgjsPath1021" d="M 0 4Q 0 0 4 0L 325 0Q 329 0 329 4L 329 163.32298730786943Q 329 167.32298730786943 325 167.32298730786943L 4 167.32298730786943Q 0 167.32298730786943 0 163.32298730786943Z" stroke="rgba(50,50,50,1)" stroke-width="2" fill-opacity="1" fill="#c8e6c9"></path><g id="SvgjsG1022"><text id="SvgjsText1023" font-family="微软雅黑" text-anchor="middle" font-size="13px" width="319px" fill="#323232" font-weight="400" align="middle" lineHeight="125%" anchor="middle" family="微软雅黑" size="13px" weight="400" font-style="" opacity="1" y="2.3266419505621005" transform="rotate(0)"><tspan id="SvgjsTspan1024" dy="16" x="164.5"><tspan id="SvgjsTspan1025" style="text-decoration:;">路由组件</tspan></tspan></text></g></g><g id="SvgjsG1026" transform="translate(775.3874816894531,25)"><path id="SvgjsPath1027" d="M 0 4Q 0 0 4 0L 262 0Q 266 0 266 4L 266 331.51895734597156Q 266 335.51895734597156 262 335.51895734597156L 4 335.51895734597156Q 0 335.51895734597156 0 331.51895734597156Z" stroke="rgba(50,50,50,1)" stroke-width="2" fill-opacity="1" fill="#81c784"></path><g id="SvgjsG1028"><text id="SvgjsText1029" font-family="微软雅黑" text-anchor="middle" font-size="13px" width="256px" fill="#323232" font-weight="400" align="middle" lineHeight="125%" anchor="middle" family="微软雅黑" size="13px" weight="400" font-style="" opacity="1" y="14.340639810426538" transform="rotate(0)"><tspan id="SvgjsTspan1030" dy="16" x="133"><tspan id="SvgjsTspan1031" style="text-decoration:;">components</tspan></tspan></text></g></g><g id="SvgjsG1032" transform="translate(235.98751831054688,107.33649289099526)"><path id="SvgjsPath1033" d="M 0 4Q 0 0 4 0L 70 0Q 74 0 74 4L 74 30Q 74 34 70 34L 4 34Q 0 34 0 30Z" stroke="rgba(50,50,50,1)" stroke-width="2" fill-opacity="1" fill="#ffcdd2"></path><g id="SvgjsG1034"><text id="SvgjsText1035" font-family="微软雅黑" text-anchor="middle" font-size="13px" width="54px" fill="#323232" font-weight="400" align="middle" lineHeight="125%" anchor="middle" family="微软雅黑" size="13px" weight="400" font-style="" opacity="1" y="6.375" transform="rotate(0)"><tspan id="SvgjsTspan1036" dy="16" x="37"><tspan id="SvgjsTspan1037" style="text-decoration:;">直接请求</tspan></tspan></text></g></g><g id="SvgjsG1038"><path id="SvgjsPath1039" d="M310.9875183105469 124.33649289099526L380.53751373291016 124.33649289099526L380.53751373291016 124.41824644549763L447.4875091552734 124.41824644549763" stroke="#323232" stroke-width="2" fill="none" marker-end="url(#SvgjsMarker1040)"></path><rect id="SvgjsRect1042" width="61" height="16" x="348.77839051016133" y="116.33649289099526" fill="#ffffff"></rect><text id="SvgjsText1043" font-family="微软雅黑" text-anchor="middle" font-size="13px" width="61px" fill="#323232" font-weight="400" align="top" lineHeight="16px" anchor="middle" family="微软雅黑" size="13px" weight="400" font-style="" opacity="1" y="113.71149289099526" transform="rotate(0)"><tspan id="SvgjsTspan1044" dy="16" x="379.27839051016133"><tspan id="SvgjsTspan1045" style="text-decoration:;">127.0.0.1/</tspan></tspan></text></g><g id="SvgjsG1046" transform="translate(451.08750915527344,89.08649289099526)"><path id="SvgjsPath1047" d="M 0 0L 207 0L 207 70.66350710900474L 0 70.66350710900474Z" stroke="rgba(50,50,50,1)" stroke-width="2" fill-opacity="1" fill="#2196f3"></path><g id="SvgjsG1048"><text id="SvgjsText1049" font-family="微软雅黑" text-anchor="start" font-size="13px" width="187px" fill="#323232" font-weight="400" align="middle" lineHeight="125%" anchor="start" family="微软雅黑" size="13px" weight="400" font-style="" opacity="1" y="8.20675355450237" transform="rotate(0)"><tspan id="SvgjsTspan1050" dy="16" x="10"><tspan id="SvgjsTspan1051" style="text-decoration:;">path: '/',</tspan></tspan><tspan id="SvgjsTspan1052" dy="16" x="10"><tspan id="SvgjsTspan1053" style="text-decoration:;">name: 'IndexView',</tspan></tspan><tspan id="SvgjsTspan1054" dy="16" x="10"><tspan id="SvgjsTspan1055" style="text-decoration:;">component: IndexPage,</tspan></tspan></text></g></g><g id="SvgjsG1056" transform="translate(451.08750915527344,225.68649136511635)"><path id="SvgjsPath1057" d="M 0 0L 207 0L 207 70.66350710900474L 0 70.66350710900474Z" stroke="rgba(0,0,0,1)" stroke-width="2" fill-opacity="1" fill="#2196f3"></path><g id="SvgjsG1058"><text id="SvgjsText1059" font-family="微软雅黑" text-anchor="start" font-size="13px" width="187px" fill="#323232" font-weight="400" align="middle" lineHeight="125%" anchor="start" family="微软雅黑" size="13px" weight="400" font-style="" opacity="1" y="8.20675355450237" transform="rotate(0)"><tspan id="SvgjsTspan1060" dy="16" x="10"><tspan id="SvgjsTspan1061" style="text-decoration:;">path: '/login',</tspan></tspan><tspan id="SvgjsTspan1062" dy="16" x="10"><tspan id="SvgjsTspan1063" style="text-decoration:;">name: 'LoginView',</tspan></tspan><tspan id="SvgjsTspan1064" dy="16" x="10"><tspan id="SvgjsTspan1065" style="text-decoration:;">component: LoginView,</tspan></tspan></text></g></g><g id="SvgjsG1066" transform="translate(861.7874908447266,89.33649289099526)"><path id="SvgjsPath1067" d="M 0 0L 100 0L 100 70L 0 70Z" stroke="rgba(50,50,50,1)" stroke-width="2" fill-opacity="1" fill="#f57c00"></path><g id="SvgjsG1068"><text id="SvgjsText1069" font-family="微软雅黑" text-anchor="middle" font-size="13px" width="80px" fill="#323232" font-weight="400" align="middle" lineHeight="125%" anchor="middle" family="微软雅黑" size="13px" weight="400" font-style="" opacity="1" y="24.375" transform="rotate(0)"><tspan id="SvgjsTspan1070" dy="16" x="50"><tspan id="SvgjsTspan1071" style="text-decoration:;">IndexPage</tspan></tspan></text></g></g><g id="SvgjsG1072" transform="translate(861.7874908447266,225.93649136511635)"><path id="SvgjsPath1073" d="M 0 0L 100 0L 100 70L 0 70Z" stroke="rgba(50,50,50,1)" stroke-width="2" fill-opacity="1" fill="#f57c00"></path><g id="SvgjsG1074"><text id="SvgjsText1075" font-family="微软雅黑" text-anchor="middle" font-size="13px" width="80px" fill="#323232" font-weight="400" align="middle" lineHeight="125%" anchor="middle" family="微软雅黑" size="13px" weight="400" font-style="" opacity="1" y="24.375" transform="rotate(0)"><tspan id="SvgjsTspan1076" dy="16" x="50"><tspan id="SvgjsTspan1077" style="text-decoration:;">LoginView</tspan></tspan></text></g></g><g id="SvgjsG1078" transform="translate(1146.3874816894531,149.91824644549763)"><path id="SvgjsPath1079" d="M 0 0L 134.20000457763672 0L 134.20000457763672 89.5L 0 89.5Z" stroke="rgba(50,50,50,1)" stroke-width="2" fill-opacity="1" fill="#e0e0e0"></path><g id="SvgjsG1080"><text id="SvgjsText1081" font-family="微软雅黑" text-anchor="start" font-size="13px" width="115px" fill="#323232" font-weight="400" align="middle" lineHeight="125%" anchor="start" family="微软雅黑" size="13px" weight="400" font-style="" opacity="1" y="34.125" transform="rotate(0)"><tspan id="SvgjsTspan1082" dy="16" x="10"><tspan id="SvgjsTspan1083" style="text-decoration:;">    &lt;router-view/&gt;</tspan></tspan></text></g></g><g id="SvgjsG1084" transform="translate(64.98751831054688,272.3499984741211)"><path id="SvgjsPath1085" d="M 0 0L 245 0L 245 54.84597156398104L 0 54.84597156398104Z" stroke="rgba(50,50,50,1)" stroke-width="2" fill-opacity="1" fill="#ffb74d"></path><g id="SvgjsG1086"><text id="SvgjsText1087" font-family="微软雅黑" text-anchor="middle" font-size="13px" width="225px" fill="#323232" font-weight="400" align="middle" lineHeight="125%" anchor="middle" family="微软雅黑" size="13px" weight="400" font-style="" opacity="1" y="8.29798578199052" transform="rotate(0)"><tspan id="SvgjsTspan1088" dy="16" x="122.5"><tspan id="SvgjsTspan1089" style="text-decoration:;">&lt;router-link target="_blank" </tspan></tspan><tspan id="SvgjsTspan1090" dy="16" x="122.5"><tspan id="SvgjsTspan1091" style="text-decoration:;">to="/login"&gt;登录&lt;/router-link&gt;</tspan></tspan></text></g></g><g id="SvgjsG1092" transform="translate(64.98751831054688,201.68649136511635)"><path id="SvgjsPath1093" d="M 0 0L 245 0L 245 60.92298578199052L 0 60.92298578199052Z" stroke="rgba(50,50,50,1)" stroke-width="2" fill-opacity="1" fill="#ffb74d"></path><g id="SvgjsG1094"><text id="SvgjsText1095" font-family="微软雅黑" text-anchor="middle" font-size="13px" width="225px" fill="#323232" font-weight="400" align="middle" lineHeight="125%" anchor="middle" family="微软雅黑" size="13px" weight="400" font-style="" opacity="1" y="11.33649289099526" transform="rotate(0)"><tspan id="SvgjsTspan1096" dy="16" x="122.5"><tspan id="SvgjsTspan1097" style="text-decoration:;">&lt;router-link target="_blank" </tspan></tspan><tspan id="SvgjsTspan1098" dy="16" x="122.5"><tspan id="SvgjsTspan1099" style="text-decoration:;">to="/register"&gt;注册&lt;/router-link&gt;</tspan></tspan></text></g></g><g id="SvgjsG1100"><path id="SvgjsPath1101" d="M659.0875091552734 194.08175355450237L759.9375 194.08175355450237L759.9375 194L858.1874908447265 194" stroke="#323232" stroke-width="2" fill="none" marker-end="url(#SvgjsMarker1102)"></path></g><g id="SvgjsG1104"><path id="SvgjsPath1105" d="M659.0875091552734 261.0182449196187L759.9375 261.0182449196187L759.9375 260.93649136511635L858.1874908447265 260.93649136511635" stroke="#323232" stroke-width="2" fill="none" marker-end="url(#SvgjsMarker1106)"></path></g><g id="SvgjsG1108" transform="translate(451.08750915527344,158.75)"><path id="SvgjsPath1109" d="M 0 0L 207 0L 207 70.66350710900474L 0 70.66350710900474Z" stroke="rgba(50,50,50,1)" stroke-width="2" fill-opacity="1" fill="#2196f3"></path><g id="SvgjsG1110"><text id="SvgjsText1111" font-family="微软雅黑" text-anchor="start" font-size="13px" width="187px" fill="#323232" font-weight="400" align="middle" lineHeight="125%" anchor="start" family="微软雅黑" size="13px" weight="400" font-style="" opacity="1" y="8.20675355450237" transform="rotate(0)"><tspan id="SvgjsTspan1112" dy="16" x="10"><tspan id="SvgjsTspan1113" style="text-decoration:;">path: '/register',</tspan></tspan><tspan id="SvgjsTspan1114" dy="16" x="10"><tspan id="SvgjsTspan1115" style="text-decoration:;">name: "RegisterView",</tspan></tspan><tspan id="SvgjsTspan1116" dy="16" x="10"><tspan id="SvgjsTspan1117" style="text-decoration:;">component: RegisterView,</tspan></tspan></text></g></g><g id="SvgjsG1118" transform="translate(861.7874908447266,159.66824644549763)"><path id="SvgjsPath1119" d="M 0 0L 100 0L 100 70L 0 70Z" stroke="rgba(50,50,50,1)" stroke-width="2" fill-opacity="1" fill="#f57c00"></path><g id="SvgjsG1120"><text id="SvgjsText1121" font-family="微软雅黑" text-anchor="middle" font-size="13px" width="80px" fill="#323232" font-weight="400" align="middle" lineHeight="125%" anchor="middle" family="微软雅黑" size="13px" weight="400" font-style="" opacity="1" y="15.875" transform="rotate(0)"><tspan id="SvgjsTspan1122" dy="16" x="50"><tspan id="SvgjsTspan1123" style="text-decoration:;">RegisterVie</tspan></tspan><tspan id="SvgjsTspan1124" dy="16" x="50"><tspan id="SvgjsTspan1125" style="text-decoration:;">w</tspan></tspan></text></g></g><g id="SvgjsG1126"><path id="SvgjsPath1127" d="M659.0875091552734 124.41824644549763L759.9375 124.41824644549763L759.9375 124.41824644549763L858.1874908447265 124.41824644549763" stroke="#323232" stroke-width="2" fill="none" marker-end="url(#SvgjsMarker1128)"></path></g><g id="SvgjsG1130"><path id="SvgjsPath1131" d="M962.7874908447266 124.33649289099526L1213.4874839782715 124.33649289099526L1213.4874839782715 146.31824644549764" stroke="#323232" stroke-width="2" fill="none" marker-end="url(#SvgjsMarker1132)"></path></g><g id="SvgjsG1134"><path id="SvgjsPath1135" d="M310.9875183105469 232.1479842561116L380.53751373291016 232.1479842561116L380.53751373291016 194.08175355450237L447.4875091552734 194.08175355450237" stroke="#323232" stroke-width="2" fill="none" marker-end="url(#SvgjsMarker1136)"></path></g><g id="SvgjsG1138"><path id="SvgjsPath1139" d="M310.9875183105469 299.7729842561116L380.53751373291016 299.7729842561116L380.53751373291016 261.0182449196187L447.4875091552734 261.0182449196187" stroke="#323232" stroke-width="2" fill="none" marker-end="url(#SvgjsMarker1140)"></path></g><g id="SvgjsG1142"><path id="SvgjsPath1143" d="M962.7874908447266 194.66824644549763L1054.0874862670898 194.66824644549763L1054.0874862670898 194.66824644549763L1142.7874816894532 194.66824644549763" stroke="#323232" stroke-width="2" fill="none" marker-end="url(#SvgjsMarker1144)"></path></g><g id="SvgjsG1146"><path id="SvgjsPath1147" d="M962.7874908447266 260.93649136511635L1213.4874839782715 260.93649136511635L1213.4874839782715 243.01824644549765" stroke="#323232" stroke-width="2" fill="none" marker-end="url(#SvgjsMarker1148)"></path></g></svg>